<?xml version="1.0" encoding="utf-8"?>
<!-- Generator: Adobe Illustrator 22.0.0, SVG Export Plug-In . SVG Version: 6.00 Build 0)  -->
<svg version="1.1" id="sssss_x2026__x2026_Boom_x21_"
	 xmlns="http://www.w3.org/2000/svg" xmlns:xlink="http://www.w3.org/1999/xlink" x="0px" y="0px" viewBox="0 0 1000 1000"
	 enable-background="new 0 0 1000 400" xml:space="preserve">
<g>
	<path d="M1.9,589.5c22.9,0.1,45.7,0.3,68.6,0.2c56.4-0.2,112.8-0.5,169.3-0.8c93.3-0.5,186.7-1.3,280-1.5
		c193.2-0.5,386.4-0.7,579.6-1c2.3,0,4.5,0,7.1,0c0,4.5,0,8.3,0,13.4c-18.5,0-36.6-0.1-54.8,0c-84.5,0.4-169,0.8-253.5,1.2
		c-89.4,0.5-178.9,1-268.3,1.6c-88.1,0.5-176.3,1-264.4,1.6c-83.2,0.5-166.4,1-249.6,1.5c-4.7,0-9.3-0.4-14-0.6
		C1.9,599.9,1.9,594.7,1.9,589.5z"/>
	<path d="M214.3,379.1c-1.1,17-3.4,34.1-2.9,51c1.1,41,3.5,82,5.4,123c0.3,6.5,1.7,13.1,0.7,19.4c-0.6,3.8-4,8.7-7.4,10.1
		c-5,2-8.1-2.8-8.9-7.3c-1.1-6.1-1.3-12.4-1.9-18.6c-5-50.2-7.1-100.6-4.9-151c0.5-10.7,2.5-21.6,5.2-32c4.4-17,19.6-21.1,31.7-8.4
		c8.6,9,15.2,19.7,23.1,29.3c13.6,16.6,26.8,33.6,41.7,49.1c10.2,10.6,21.5,9.8,30.1-2.2c12.3-17.3,22.5-36,33.5-54.2
		c5.9-9.8,10.8-20.2,17.3-29.4c8.3-11.7,22.6-9.9,26.7,4c4.1,13.8,6.8,28.3,7.7,42.7c2.6,39.6,3.8,79.4,5.7,119.1
		c0.5,10.9,1.3,21.8,2.2,32.7c0.5,6.1-0.8,11.5-7.2,12.7c-7.3,1.3-9.6-4.8-10-10.2c-1.8-24.6-2.9-49.2-4.5-73.9
		c-2.3-35.5-4.8-71-7.2-106.4c-0.1-1.4-1-2.7-2.3-5.9c-4.3,8.1-7.7,15.1-11.6,21.7c-11.7,19.8-22.8,40.2-35.8,59.1
		c-8.6,12.6-22,20.3-37.8,15.3c-8.8-2.8-17.7-8.3-24-15c-12.8-13.6-23.9-28.6-35.5-43.3c-5.8-7.3-10.9-15.2-16.6-22.6
		c-2.6-3.4-5.8-6.3-8.8-9.5C216.5,378.7,215.4,378.9,214.3,379.1z"/>
	<path d="M574.8,382.1c2.1,1.6,6.3,3.1,6.7,5.3c0.5,2.8-1.4,7.5-3.7,8.8c-6.4,3.7-13.7,5.9-20.5,9.1c-22,10.3-43.9,20.8-65.9,31.3
		c-1.6,0.8-3.1,1.9-4.5,3.1c-5.9,5.1-6,8.5,1.1,11.6c13.8,5.9,27.9,11,42,16.1c15.6,5.6,31.4,10.6,46.9,16.5c5.2,2,9.7,5.8,14.5,8.8
		c12,7.5,10.7,22.7,2.9,30.1c-7.9,7.3-16.4,14.6-25.8,19.5c-23.2,11.9-47.2,22.5-70.9,33.5c-1.8,0.9-4.1,1.8-5.9,1.4
		c-2.7-0.5-6.8-1.7-7.4-3.5c-0.8-2.4,0.2-6.6,2.1-8.6c2.3-2.5,6-3.8,9.3-5.3c23.7-11.5,47.5-22.8,71.1-34.5c4.8-2.4,9.1-6,13.1-9.7
		c6.1-5.6,6.1-9.5-1.3-13.2c-10.1-5.1-20.8-9.1-31.5-13c-19.9-7.2-40.1-14-60-21.1c-3.4-1.2-6.5-3.2-9.6-5.1
		c-13.2-8.6-14.9-23.3-2.5-33.1c10.2-8.1,21.7-15.2,33.5-20.8c19.4-9.1,39.5-16.7,59.4-24.9C569.6,383.6,571.6,383.1,574.8,382.1z"
		/>
	<path d="M761.8,387.3c1.9,1.9,6.1,4.4,5.8,6.1c-0.5,3.6-2.7,8.1-5.6,9.9c-12.4,7.4-25.5,13.7-38.1,21c-23,13.2-45.8,26.6-64.6,45.7
		c-2,2-4,4.1-5.8,6.4c-13.4,17.1-11.8,30.6,7.5,40.6c17.3,9,35.8,16.1,54.4,22.3c21.3,7.2,43.2,12.6,64.9,18.7
		c5.3,1.5,10.8,3.7,9.4,10.1c-1.6,6.9-7.6,6.7-13.3,5.1c-37.8-10.6-76.3-19.5-112-36.5c-8.1-3.9-16.2-8.5-22.7-14.6
		c-17.3-16.1-16.3-37.6,1.6-57.8c16.2-18.4,36.2-31.8,57-44.1c17.4-10.3,35.2-19.8,52.9-29.6C755.3,389.3,757.8,388.7,761.8,387.3z"
		/>
	<path d="M291.8,554c-2.5-0.7-5.6-1.5-6.7-4.2c-1-2.6,0.6-5.3,0.7-5.4c0.8-1.3,2.1-2.4,4.6-3.1c13.6-3.8,27.5-7,41.4-9.5
		c2.1-0.4,7.8,2.4,8.2,5.7c0.4,3.4-4.7,6.9-5.4,7.4c-1.7,1.2-3.4,1.8-4.6,2.2c-10.2,2.4-20.4,4.8-30.5,7.2
		C295.9,554.9,293.2,554.4,291.8,554z"/>
	<path d="M374.9,505.6c0.2,7.1-5.7,13.2-13.2,13.7c-7.8,0.4-14.6-5.5-14.8-12.8c-0.2-7.1,5.7-13.2,13.2-13.7
		C367.8,492.3,374.6,498.2,374.9,505.6z"/>
	<path d="M275,512.2c0,7.4-6.5,13.5-14.4,13.3c-7.4-0.2-13.7-6.2-13.7-13.2c0-7.4,6.5-13.5,14.4-13.3
		C268.8,499.1,275,505.1,275,512.2z"/>
</g>
</svg>
