<?xml version="1.0" encoding="utf-8"?>
<!-- Generator: Adobe Illustrator 22.0.0, SVG Export Plug-In . SVG Version: 6.00 Build 0)  -->
<svg version="1.1" id="图层_1" xmlns="http://www.w3.org/2000/svg" xmlns:xlink="http://www.w3.org/1999/xlink" x="0px" y="0px"
	 viewBox="0 0 1000 1000" style="enable-background:new 0 0 1000 1000;" xml:space="preserve">
<g>
	<path d="M234.8,495.5c11,0,22,0.1,32.9,0.1c27.1-0.1,54.2-0.2,81.3-0.4c44.9-0.2,89.7-0.6,134.6-0.7c92.8-0.2,185.7-0.3,278.5-0.5
		c1.1,0,2.2,0,3.4,0c0,2.2,0,4,0,6.5c-8.9,0-17.6,0-26.3,0c-40.6,0.2-81.2,0.4-121.8,0.6c-43,0.2-86,0.5-128.9,0.7
		c-42.4,0.2-84.7,0.5-127.1,0.8c-40,0.2-80,0.5-119.9,0.7c-2.2,0-4.5-0.2-6.7-0.3C234.8,500.5,234.8,498,234.8,495.5z"/>
	<path d="M336.8,394.4c-0.5,8.2-1.6,16.4-1.4,24.5c0.5,19.7,1.7,39.4,2.6,59.1c0.1,3.1,0.8,6.3,0.3,9.3c-0.3,1.8-1.9,4.2-3.6,4.8
		c-2.4,1-3.9-1.3-4.3-3.5c-0.5-2.9-0.6-5.9-0.9-8.9c-2.4-24.1-3.4-48.3-2.4-72.6c0.2-5.2,1.2-10.4,2.5-15.4c2.1-8.2,9.4-10.1,15.2-4
		c4.1,4.3,7.3,9.5,11.1,14.1c6.6,8,12.9,16.2,20,23.6c4.9,5.1,10.3,4.7,14.4-1.1c5.9-8.3,10.8-17.3,16.1-26
		c2.8-4.7,5.2-9.7,8.3-14.1c4-5.6,10.8-4.8,12.8,1.9c2,6.6,3.3,13.6,3.7,20.5c1.2,19.1,1.8,38.1,2.7,57.2c0.2,5.2,0.6,10.5,1,15.7
		c0.2,2.9-0.4,5.5-3.5,6.1c-3.5,0.6-4.6-2.3-4.8-4.9c-0.9-11.8-1.4-23.7-2.2-35.5c-1.1-17.1-2.3-34.1-3.5-51.1
		c0-0.7-0.5-1.3-1.1-2.8c-2.1,3.9-3.7,7.2-5.6,10.4c-5.6,9.5-11,19.3-17.2,28.4c-4.1,6-10.6,9.7-18.2,7.3c-4.2-1.3-8.5-4-11.5-7.2
		c-6.1-6.5-11.5-13.8-17.1-20.8c-2.8-3.5-5.3-7.3-8-10.9c-1.3-1.6-2.8-3-4.2-4.6C337.9,394.2,337.3,394.3,336.8,394.4z"/>
	<path d="M510,395.8c1,0.8,3,1.5,3.2,2.6c0.2,1.3-0.6,3.6-1.8,4.2c-3.1,1.8-6.6,2.9-9.9,4.4c-10.6,5-21.1,10-31.6,15
		c-0.8,0.4-1.5,0.9-2.1,1.5c-2.8,2.4-2.9,4.1,0.5,5.6c6.6,2.9,13.4,5.3,20.2,7.7c7.5,2.7,15.1,5.1,22.5,7.9c2.5,1,4.6,2.8,7,4.3
		c5.8,3.6,5.2,10.9,1.4,14.5c-3.8,3.5-7.9,7-12.4,9.4c-11.2,5.7-22.7,10.8-34.1,16.1c-0.9,0.4-2,0.9-2.8,0.7
		c-1.3-0.3-3.3-0.8-3.6-1.7c-0.4-1.2,0.1-3.2,1-4.2c1.1-1.2,2.9-1.8,4.5-2.6c11.4-5.5,22.8-11,34.2-16.6c2.3-1.1,4.4-2.9,6.3-4.6
		c3-2.7,2.9-4.6-0.6-6.3c-4.9-2.4-10-4.4-15.2-6.2c-9.6-3.5-19.3-6.7-28.9-10.1c-1.6-0.6-3.1-1.5-4.6-2.5
		c-6.3-4.1-7.2-11.2-1.2-15.9c4.9-3.9,10.4-7.3,16.1-10c9.3-4.4,19-8,28.5-12C507.6,396.6,508.5,396.3,510,395.8z"/>
	<path d="M599.9,398.3c0.9,0.9,2.9,2.1,2.8,3c-0.3,1.7-1.3,3.9-2.7,4.7c-6,3.6-12.3,6.6-18.3,10.1c-11,6.3-22,12.8-31,22
		c-1,1-1.9,2-2.8,3.1c-6.5,8.2-5.7,14.7,3.6,19.5c8.3,4.3,17.2,7.7,26.1,10.7c10.2,3.5,20.8,6,31.2,9c2.5,0.7,5.2,1.8,4.5,4.9
		c-0.7,3.3-3.6,3.2-6.4,2.5c-18.2-5.1-36.7-9.4-53.8-17.6c-3.9-1.9-7.8-4.1-10.9-7c-8.3-7.7-7.8-18,0.8-27.8
		c7.8-8.8,17.4-15.3,27.4-21.2c8.4-4.9,16.9-9.5,25.4-14.2C596.8,399.3,598,399,599.9,398.3z"/>
	<path d="M374,479.4c-0.9-0.8-3.1-1.8-3.2-3c-0.1-1.3,1.3-3.7,2.5-4.1c6.5-1.8,13.2-3.4,19.9-4.6c1.2-0.2,3.8,1.6,3.9,2.8
		c0.2,1.2-1.4,3.7-2.6,4.1C388.1,476.4,381.5,477.7,374,479.4z"/>
	<path d="M414,455.2c0.1,3.4-2.7,6.4-6.3,6.6c-3.7,0.2-7-2.6-7.1-6.2c-0.1-3.4,2.7-6.4,6.3-6.6C410.6,448.8,413.9,451.6,414,455.2z"
		/>
	<path d="M366,458.4c0,3.6-3.1,6.5-6.9,6.4c-3.6-0.1-6.6-3-6.6-6.4c0-3.6,3.1-6.5,6.9-6.4C363,452.1,366,455,366,458.4z"/>
</g>
</svg>
